<?xml version="1.0" encoding="iso-8859-1"?>
<!-- Generator: Adobe Illustrator 16.0.0, SVG Export Plug-In . SVG Version: 6.00 Build 0)  -->
<!DOCTYPE svg PUBLIC "-//W3C//DTD SVG 1.1//EN" "http://www.w3.org/Graphics/SVG/1.1/DTD/svg11.dtd">
<svg version="1.1" id="Capa_1" xmlns="http://www.w3.org/2000/svg" xmlns:xlink="http://www.w3.org/1999/xlink" x="0px" y="0px"
	 width="365.182px" height="365.182px" viewBox="0 0 365.182 365.182" style="enable-background:new 0 0 365.182 365.182;"
	 xml:space="preserve">
<g>
	<g>
		<path d="M219.877,174.015c-0.396-2.249-2.12-3.881-4.39-4.144c-10.914-1.283-21.98-1.933-32.895-1.933
			c-10.916,0-21.98,0.648-32.897,1.931c-2.271,0.265-3.995,1.895-4.392,4.141l-4.15,23.637l-0.586,3.338h84.044L219.877,174.015z"/>
		<path d="M203.264,226.885h-41.346c-1.561,0-2.827,1.271-2.827,2.827v11.448c0,1.562,1.267,2.828,2.827,2.828h41.348
			c0.769,0,1.46-0.287,2-0.826c0.54-0.541,0.826-1.231,0.826-1.998v-11.452C206.092,228.154,204.823,226.885,203.264,226.885z"/>
		<path d="M132.701,226.705c-4.895,0-8.875,3.98-8.875,8.871c0,4.896,3.98,8.879,8.875,8.879c4.896,0,8.877-3.982,8.877-8.879
			C141.578,230.686,137.597,226.705,132.701,226.705z"/>
		<path d="M182.612,0c0,0-135.021,155.613-135.021,230.16c0,74.564,60.439,135.021,135.021,135.021
			c74.547,0,134.979-60.456,134.979-135.021C317.591,155.613,182.612,0,182.612,0z M260.729,257.722
			c0,6.019-4.579,10.981-10.434,11.603V288.8h-31.488v-19.412h-72.432V288.8h-31.488v-19.476
			c-5.854-0.621-10.435-5.584-10.435-11.603V216.99c0-6.43,5.23-11.659,11.662-11.659h2.49l1.853-10.544
			c1.921-10.944,3.845-21.887,5.771-32.831c0.899-5.113,4.966-8.958,10.125-9.564c15.351-1.797,30.906-2.711,46.241-2.711
			c15.329,0,30.884,0.914,46.233,2.711c5.083,0.598,9.245,4.531,10.129,9.564l7.62,43.375h2.492c6.431,0,11.659,5.231,11.659,11.659
			L260.729,257.722L260.729,257.722z"/>
		<path d="M232.481,226.705c-4.896,0-8.877,3.98-8.877,8.871c0,4.896,3.981,8.879,8.877,8.879c4.895,0,8.873-3.982,8.873-8.879
			C241.354,230.686,237.375,226.705,232.481,226.705z"/>
	</g>
</g>
<g>
</g>
<g>
</g>
<g>
</g>
<g>
</g>
<g>
</g>
<g>
</g>
<g>
</g>
<g>
</g>
<g>
</g>
<g>
</g>
<g>
</g>
<g>
</g>
<g>
</g>
<g>
</g>
<g>
</g>
</svg>
