<svg xmlns="http://www.w3.org/2000/svg" xmlns:xlink="http://www.w3.org/1999/xlink" width="540" height="540" viewBox="0 0 138.0891 139.0866"><symbol id="t" viewBox="-69.0447 -66.9051 138.0891 139.0866"><g fill="#4B4C4E"><path d="M21.703-49.975h9.53c1.004 0 1.818-.814 1.818-1.82v-13.29c.002-1.005-.813-1.82-1.818-1.82h-9.53c-1.004 0-1.818.815-1.818 1.82v13.29c0 1.006.815 1.82 1.82 1.82zM-21.766-49.975h-9.53c-1.004 0-1.82-.814-1.82-1.82v-13.29c.002-1.005.816-1.82 1.82-1.82h9.53c1.005 0 1.82.815 1.82 1.82v13.29c0 1.006-.816 1.82-1.82 1.82z"/></g><path fill="#25385F" d="M34.657-23.568c0 3.65-1.81 3.957-3.957 3.957s-3.62-3.62-4.33-1.773l-.003-.003c-.837 2.96-5.02 13.048-8.456 14.81C14.323-4.736 6.134-5.012-.03-5.012s-14.353.276-17.942-1.564c-3.435-1.762-7.62-11.85-8.456-14.81l-.002.003c-.712-1.847-2.184 1.772-4.33 1.772s-3.958-.308-3.958-3.958c0-3.65 8.015-.012 7.45-2.41-.265-1.496-.588-2.857-1.1-3.51-1.013-1.287-4.693-7.82-5.06-9.752-.37-1.932-2.762-15.09 2.943-18.218 5.705-3.13 24.935-2.485 30.456-2.485s24.75-.644 30.454 2.485c5.705 3.128 3.313 16.286 2.945 18.218s-4.05 8.465-5.062 9.753c-.512.652-.836 2.013-1.102 3.508-.564 2.4 7.45-1.237 7.45 2.412z"/><defs><path id="a" d="M15.18-38.136c0-3.828 3.104-6.932 6.932-6.932s6.932 3.104 6.932 6.932-3.103 6.93-6.932 6.93-6.93-3.102-6.93-6.93z"/></defs><use xlink:href="#a" overflow="visible" fill="#CAE7F6"/><clipPath id="b"><use xlink:href="#a" overflow="visible"/></clipPath><path clip-path="url(#b)" fill="#98ADB9" d="M29.044-36.664c0-3.828-3.103-6.93-6.93-6.93s-6.933 3.102-6.933 6.93v-1.472c0-3.828 3.104-6.932 6.933-6.932s6.93 3.104 6.93 6.932"/><path fill="#151F35" d="M33.37-39.24l-.478 1.41c.32-1.01 2.547-8.104-2.468-10.795C24.72-51.755 5.49-51.11-.032-51.11s-24.75-.644-30.455 2.485c-5.015 2.69-2.788 9.785-2.468 10.796l-.477-1.41c-.368-1.932-2.76-15.09 2.945-18.218 5.704-3.13 24.935-2.485 30.455-2.485s24.752-.644 30.456 2.484c5.705 3.13 3.313 16.288 2.945 18.22z"/><g><defs><path id="c" d="M17.88-9.245C9.783-8.385 6.225-8.018-.032-8.018s-9.814-.368-17.91-1.227c0 0-6.282-7.754-7.166-16.734H25.045C24.16-16.997 17.88-9.244 17.88-9.244z"/></defs><use xlink:href="#c" overflow="visible" fill="#CAE7F6"/><clipPath id="d"><use xlink:href="#c" overflow="visible"/></clipPath><path clip-path="url(#d)" fill="#8DCFD0" d="M-7.822-14.12c0-2.593-2.1-4.694-4.692-4.694s-4.693 2.1-4.693 4.693 2.1 4.69 4.692 4.69 4.693-2.1 4.693-4.69zM-4.8-26.566c0-3.976-3.454-7.2-7.715-7.2s-7.713 3.224-7.713 7.2 3.453 7.2 7.714 7.2 7.713-3.223 7.713-7.2zM17.144-14.12c0-2.593-2.1-4.694-4.692-4.694s-4.693 2.1-4.693 4.693 2.1 4.69 4.692 4.69 4.692-2.1 4.692-4.69z"/><path clip-path="url(#d)" fill="#8DCFD0" d="M3.266-26.566c0 1.987.72 3.814 1.914 5.278-1.374 1.183-3.195 1.922-5.212 1.922s-3.837-.74-5.21-1.922c1.194-1.463 1.913-3.29 1.913-5.278s-.718-3.814-1.913-5.278c1.374-1.183 3.195-1.922 5.212-1.922s3.836.74 5.21 1.922c-1.195 1.464-1.914 3.29-1.914 5.278z"/><path clip-path="url(#d)" fill="#8DCFD0" d="M20.165-26.566c0-3.976-3.453-7.2-7.714-7.2s-7.712 3.224-7.712 7.2 3.453 7.2 7.713 7.2 7.715-3.223 7.715-7.2zM4.66-14.12c0-2.593-2.1-4.694-4.69-4.694s-4.694 2.1-4.694 4.693 2.1 4.69 4.693 4.69 4.69-2.1 4.69-4.69z"/></g><g><defs><path id="e" d="M16.24-51.607c0-2.257-7.285-4.086-16.27-4.086s-16.272 1.83-16.272 4.086 7.285 4.086 16.27 4.086 16.27-1.83 16.27-4.087z"/></defs><use xlink:href="#e" overflow="visible" fill="#CAE7F6"/></g><g><defs><path id="f" d="M-29.107-38.136c0-3.828 3.103-6.932 6.931-6.932s6.932 3.104 6.932 6.932-3.103 6.93-6.931 6.93-6.932-3.102-6.932-6.93z"/></defs><use xlink:href="#f" overflow="visible" fill="#CAE7F6"/><clipPath id="g"><use xlink:href="#f" overflow="visible"/></clipPath><path clip-path="url(#g)" fill="#98ADB9" d="M-15.244-36.664c0-3.828-3.103-6.93-6.931-6.93s-6.932 3.102-6.932 6.93v-1.472c0-3.828 3.103-6.932 6.931-6.932s6.932 3.104 6.932 6.932"/></g><g><path fill="#25385F" d="M-21.365 50.848c0 11.782 9.55 21.334 21.334 21.334S21.3 62.63 21.3 50.847C21.302 29.958-.03 8.182-.03 8.182s-21.335 21.777-21.335 42.666z"/><path fill="#151F35" d="M-.032 72.18c11.783 0 21.334-9.55 21.334-21.332 0-20.89-21.334-42.666-21.334-42.666v64z"/><linearGradient id="h" gradientUnits="userSpaceOnUse" x1="-.032" y1="72.181" x2="-.032" y2="8.181"><stop offset="0" stop-color="#FFF"/><stop offset="1"/></linearGradient><path opacity=".1" fill="url(#h)" d="M-21.365 50.848c0 11.782 9.55 21.334 21.334 21.334S21.3 62.63 21.3 50.847C21.302 29.958-.03 8.182-.03 8.182s-21.335 21.777-21.335 42.666z"/><path fill="#FFF" d="M13.755 50.893c0-7.66-6.208-13.867-13.866-13.867S-13.98 43.234-13.98 50.893-7.77 64.76-.11 64.76s13.865-6.21 13.865-13.867z"/><linearGradient id="i" gradientUnits="userSpaceOnUse" x1="-.111" y1="35.986" x2="-.111" y2="65.799"><stop offset="0" stop-color="#FFF"/><stop offset="1" stop-color="#B3B3B3"/></linearGradient><path fill="url(#i)" d="M-.11 65.8c-8.234 0-14.908-6.675-14.908-14.907 0-8.233 6.674-14.907 14.907-14.907 8.23 0 14.905 6.674 14.905 14.907C14.795 59.125 8.12 65.8-.11 65.8zm0-28.774c-7.66 0-13.868 6.208-13.868 13.867 0 7.658 6.208 13.866 13.867 13.866 7.657 0 13.865-6.21 13.865-13.867 0-7.66-6.208-13.867-13.866-13.867z"/><g><defs><path id="j" d="M11.69 50.893c0-6.517-5.284-11.8-11.8-11.8s-11.802 5.283-11.802 11.8 5.284 11.8 11.8 11.8 11.8-5.283 11.8-11.8z"/></defs><clipPath id="k"><use xlink:href="#j" overflow="visible"/></clipPath><path clip-path="url(#k)" fill="#25385F" d="M-.032 26.093l-12.91 15.288c.43 3.118 3.284 3.87 3.81 4.002.525.13 3.32 1.493 3.798 2.317-.323.81 2.054 1.29 2.054 1.29v.727s-1.1 2.27-1.242 3.858c-.86.095-1.29 1.947-.478 2.412-.908 5.017 2.102 6.593 4.968 6.593s5.877-1.576 4.97-6.593c.81-.465.38-2.317-.48-2.412-.142-1.59-1.24-3.858-1.24-3.858v-.728s2.376-.48 2.053-1.29c.48-.825 3.274-2.187 3.8-2.318.525-.132 3.38-.884 3.81-4L-.033 26.093z"/></g></g><g><path fill="#25385F" d="M-65.05 12.465c-6.06 7.22-5.118 17.985 2.102 24.044s17.986 5.116 24.044-2.104c10.742-12.802 8.867-37.118 8.867-37.118S-54.31-.336-65.05 12.465z"/><path fill="#151F35" d="M-62.948 36.51c7.22 6.058 17.986 5.116 24.044-2.104 10.742-12.802 8.867-37.118 8.867-37.118l-32.91 39.22z"/><linearGradient id="l" gradientUnits="userSpaceOnUse" x1="6946.614" y1="3624.103" x2="6946.614" y2="3572.903" gradientTransform="rotate(40.002 8369.883 -7798.955)"><stop offset="0" stop-color="#FFF"/><stop offset="1"/></linearGradient><path opacity=".1" fill="url(#l)" d="M-65.05 12.465c-6.06 7.22-5.118 17.985 2.102 24.044s17.986 5.116 24.044-2.104c10.742-12.802 8.867-37.118 8.867-37.118S-54.31-.336-65.05 12.465z"/><path fill="#FFF" d="M-43.55 30.552c3.937-4.693 3.325-11.69-1.37-15.629s-11.69-3.326-15.627 1.368-3.326 11.69 1.367 15.63 11.69 3.325 15.63-1.368z"/><linearGradient id="m" gradientUnits="userSpaceOnUse" x1="6946.55" y1="3595.147" x2="6946.55" y2="3618.998" gradientTransform="rotate(40.002 8369.883 -7798.955)"><stop offset="0" stop-color="#FFF"/><stop offset="1" stop-color="#B3B3B3"/></linearGradient><path fill="url(#m)" d="M-59.715 32.557c-5.045-4.234-5.703-11.756-1.47-16.8 4.234-5.046 11.756-5.704 16.8-1.47 5.046 4.233 5.705 11.755 1.47 16.8-4.233 5.045-11.755 5.703-16.8 1.47zm14.796-17.634c-4.692-3.938-11.69-3.325-15.627 1.368-3.938 4.694-3.326 11.69 1.367 15.63 4.693 3.938 11.69 3.325 15.63-1.368 3.937-4.693 3.325-11.69-1.37-15.628z"/><g><defs><path id="n" d="M-44.818 29.49c3.352-3.994 2.83-9.95-1.163-13.3s-9.95-2.83-13.3 1.164-2.83 9.948 1.163 13.3 9.948 2.83 13.3-1.164z"/></defs><clipPath id="o"><use xlink:href="#n" overflow="visible"/></clipPath><path clip-path="url(#o)" fill="#25385F" d="M-39.248 8.265l-15.773 2.73c-1.34 2.13.022 4.06.276 4.41.255.35 1.267 2.623 1.136 3.374-.615.33.596 1.845.596 1.845l-.375.447s-1.84.825-2.745 1.725c-.576-.383-1.79.53-1.533 1.233-3.136 2.607-2.102 5.12-.345 6.595s4.41 2.056 6.435-1.485c.737.132 1.425-1.223.947-1.724.73-1.047 1.223-3.003 1.223-3.003l.374-.447s1.702.93 1.922.266c.716-.26 3.13.344 3.52.533s2.524 1.197 4.39-.492l-.05-16.008z"/></g></g><g><path fill="#25385F" d="M38.904 34.328c6.058 7.22 16.823 8.162 24.044 2.104s8.162-16.824 2.103-24.044C54.31-.414 30.038-2.79 30.038-2.79s-1.875 24.317 8.867 37.118z"/><path fill="#151F35" d="M62.948 36.432c7.22-6.06 8.162-16.824 2.103-24.044C54.31-.414 30.038-2.79 30.038-2.79l32.91 39.222z"/><linearGradient id="p" gradientUnits="userSpaceOnUse" x1="-3030.112" y1="-7136.571" x2="-3030.112" y2="-7187.771" gradientTransform="rotate(-40.002 8370.18 -7798.76)"><stop offset="0" stop-color="#FFF"/><stop offset="1"/></linearGradient><path opacity=".1" fill="url(#p)" d="M38.904 34.328c6.058 7.22 16.823 8.162 24.044 2.104s8.162-16.824 2.103-24.044C54.31-.414 30.038-2.79 30.038-2.79s-1.875 24.317 8.867 37.118z"/><path fill="#FFF" d="M60.45 16.296c-3.94-4.694-10.936-5.306-15.63-1.368s-5.305 10.936-1.367 15.63 10.936 5.304 15.63 1.366 5.304-10.935 1.366-15.628z"/><linearGradient id="q" gradientUnits="userSpaceOnUse" x1="-3030.175" y1="-7165.528" x2="-3030.175" y2="-7141.677" gradientTransform="rotate(-40.002 8370.18 -7798.76)"><stop offset="0" stop-color="#FFF"/><stop offset="1" stop-color="#B3B3B3"/></linearGradient><path fill="url(#q)" d="M59.617 32.562c-5.046 4.233-12.568 3.575-16.8-1.47-4.235-5.045-3.577-12.567 1.47-16.8 5.044-4.234 12.566-3.576 16.8 1.47 4.233 5.044 3.575 12.566-1.47 16.8zM44.82 14.928c-4.693 3.938-5.305 10.936-1.367 15.63 3.938 4.692 10.935 5.304 15.63 1.366 4.692-3.938 5.304-10.935 1.366-15.628-3.94-4.694-10.936-5.306-15.63-1.368z"/><g><defs><path id="r" d="M59.183 17.358c-3.35-3.994-9.306-4.515-13.3-1.163s-4.515 9.305-1.163 13.3c3.35 3.993 9.305 4.514 13.3 1.163s4.514-9.306 1.163-13.3z"/></defs><clipPath id="s"><use xlink:href="#r" overflow="visible"/></clipPath><path clip-path="url(#s)" fill="#25385F" d="M39.248 8.187l-.05 16.008c1.865 1.69 4.002.683 4.39.493s2.804-.792 3.52-.533c.22.663 1.922-.266 1.922-.266l.375.445s.493 1.956 1.222 3.003c-.478.5.21 1.857.948 1.725 2.023 3.54 4.68 2.96 6.435 1.485 1.757-1.474 2.79-3.988-.345-6.595.258-.703-.957-1.617-1.534-1.233-.903-.9-2.743-1.725-2.743-1.725l-.375-.447s1.21-1.515.596-1.847c-.13-.75.88-3.02 1.136-3.372s1.617-2.28.277-4.41L39.25 8.187z"/></g></g></symbol><use xlink:href="#t" width="138.089" height="139.087" x="-69.045" y="-66.905" transform="matrix(1 0 0 -1 69.045 72.18)" overflow="visible"/></svg>